<mxfile host="65bd71144e">
    <diagram id="iVPDcZRPLNx6i7zLEbqD" name="Page-1">
        <mxGraphModel dx="1895" dy="1333" grid="1" gridSize="10" guides="1" tooltips="1" connect="1" arrows="1" fold="1" page="1" pageScale="1" pageWidth="827" pageHeight="1169" math="0" shadow="0">
            <root>
                <mxCell id="0"/>
                <mxCell id="1" parent="0"/>
                <mxCell id="24" style="edgeStyle=orthogonalEdgeStyle;rounded=0;orthogonalLoop=1;jettySize=auto;html=1;entryX=0.008;entryY=0.091;entryDx=0;entryDy=0;entryPerimeter=0;exitX=1;exitY=0.103;exitDx=0;exitDy=0;exitPerimeter=0;endArrow=none;endFill=0;" edge="1" parent="1" source="2" target="12">
                    <mxGeometry relative="1" as="geometry"/>
                </mxCell>
                <mxCell id="25" value="&lt;b&gt;N&lt;/b&gt;" style="edgeLabel;html=1;align=center;verticalAlign=middle;resizable=0;points=[];" vertex="1" connectable="0" parent="24">
                    <mxGeometry x="-0.8168" y="-1" relative="1" as="geometry">
                        <mxPoint x="2" y="-3" as="offset"/>
                    </mxGeometry>
                </mxCell>
                <mxCell id="26" value="&lt;b&gt;1&lt;/b&gt;" style="edgeLabel;html=1;align=center;verticalAlign=middle;resizable=0;points=[];" vertex="1" connectable="0" parent="24">
                    <mxGeometry x="0.7539" relative="1" as="geometry">
                        <mxPoint x="1" y="-2" as="offset"/>
                    </mxGeometry>
                </mxCell>
                <mxCell id="2" value="Cobranca" style="swimlane;fontStyle=0;childLayout=stackLayout;horizontal=1;startSize=26;fillColor=none;horizontalStack=0;resizeParent=1;resizeParentMax=0;resizeLast=0;collapsible=1;marginBottom=0;" vertex="1" parent="1">
                    <mxGeometry x="339" y="190" width="140" height="130" as="geometry"/>
                </mxCell>
                <mxCell id="9" value="+ id: int" style="text;strokeColor=none;fillColor=none;align=left;verticalAlign=top;spacingLeft=4;spacingRight=4;overflow=hidden;rotatable=0;points=[[0,0.5],[1,0.5]];portConstraint=eastwest;" vertex="1" parent="2">
                    <mxGeometry y="26" width="140" height="26" as="geometry"/>
                </mxCell>
                <mxCell id="18" value="+ valor: float" style="text;strokeColor=none;fillColor=none;align=left;verticalAlign=top;spacingLeft=4;spacingRight=4;overflow=hidden;rotatable=0;points=[[0,0.5],[1,0.5]];portConstraint=eastwest;" vertex="1" parent="2">
                    <mxGeometry y="52" width="140" height="26" as="geometry"/>
                </mxCell>
                <mxCell id="36" value="+ cliente: Cliente" style="text;strokeColor=none;fillColor=none;align=left;verticalAlign=top;spacingLeft=4;spacingRight=4;overflow=hidden;rotatable=0;points=[[0,0.5],[1,0.5]];portConstraint=eastwest;" vertex="1" parent="2">
                    <mxGeometry y="78" width="140" height="26" as="geometry"/>
                </mxCell>
                <mxCell id="38" value="+ boleto: Boleto" style="text;strokeColor=none;fillColor=none;align=left;verticalAlign=top;spacingLeft=4;spacingRight=4;overflow=hidden;rotatable=0;points=[[0,0.5],[1,0.5]];portConstraint=eastwest;" vertex="1" parent="2">
                    <mxGeometry y="104" width="140" height="26" as="geometry"/>
                </mxCell>
                <mxCell id="27" style="edgeStyle=orthogonalEdgeStyle;rounded=0;orthogonalLoop=1;jettySize=auto;html=1;entryX=0.011;entryY=0.105;entryDx=0;entryDy=0;entryPerimeter=0;endArrow=none;endFill=0;exitX=1.005;exitY=0.086;exitDx=0;exitDy=0;exitPerimeter=0;" edge="1" parent="1" source="7" target="2">
                    <mxGeometry relative="1" as="geometry"/>
                </mxCell>
                <mxCell id="28" value="&lt;b&gt;1&lt;/b&gt;" style="edgeLabel;html=1;align=center;verticalAlign=middle;resizable=0;points=[];" vertex="1" connectable="0" parent="27">
                    <mxGeometry x="-0.7962" y="1" relative="1" as="geometry">
                        <mxPoint y="-1" as="offset"/>
                    </mxGeometry>
                </mxCell>
                <mxCell id="29" value="1" style="edgeLabel;html=1;align=center;verticalAlign=middle;resizable=0;points=[];" vertex="1" connectable="0" parent="27">
                    <mxGeometry x="0.7929" relative="1" as="geometry">
                        <mxPoint y="-1" as="offset"/>
                    </mxGeometry>
                </mxCell>
                <mxCell id="7" value="Boleto" style="swimlane;fontStyle=0;childLayout=stackLayout;horizontal=1;startSize=26;fillColor=none;horizontalStack=0;resizeParent=1;resizeParentMax=0;resizeLast=0;collapsible=1;marginBottom=0;" vertex="1" parent="1">
                    <mxGeometry x="109" y="190" width="140" height="164" as="geometry"/>
                </mxCell>
                <mxCell id="10" value="+ id: int" style="text;strokeColor=none;fillColor=none;align=left;verticalAlign=top;spacingLeft=4;spacingRight=4;overflow=hidden;rotatable=0;points=[[0,0.5],[1,0.5]];portConstraint=eastwest;" vertex="1" parent="7">
                    <mxGeometry y="26" width="140" height="26" as="geometry"/>
                </mxCell>
                <mxCell id="19" value="+ valor: float" style="text;strokeColor=none;fillColor=none;align=left;verticalAlign=top;spacingLeft=4;spacingRight=4;overflow=hidden;rotatable=0;points=[[0,0.5],[1,0.5]];portConstraint=eastwest;" vertex="1" parent="7">
                    <mxGeometry y="52" width="140" height="26" as="geometry"/>
                </mxCell>
                <mxCell id="37" value="+ cobranca: Cobranca" style="text;strokeColor=none;fillColor=none;align=left;verticalAlign=top;spacingLeft=4;spacingRight=4;overflow=hidden;rotatable=0;points=[[0,0.5],[1,0.5]];portConstraint=eastwest;" vertex="1" parent="7">
                    <mxGeometry y="78" width="140" height="26" as="geometry"/>
                </mxCell>
                <mxCell id="20" value="- _quitado: boolean" style="text;strokeColor=none;fillColor=none;align=left;verticalAlign=top;spacingLeft=4;spacingRight=4;overflow=hidden;rotatable=0;points=[[0,0.5],[1,0.5]];portConstraint=eastwest;" vertex="1" parent="7">
                    <mxGeometry y="104" width="140" height="26" as="geometry"/>
                </mxCell>
                <mxCell id="21" value="" style="line;strokeWidth=1;fillColor=none;align=left;verticalAlign=middle;spacingTop=-1;spacingLeft=3;spacingRight=3;rotatable=0;labelPosition=right;points=[];portConstraint=eastwest;" vertex="1" parent="7">
                    <mxGeometry y="130" width="140" height="8" as="geometry"/>
                </mxCell>
                <mxCell id="22" value="+ get quitado(  ): boolean" style="text;strokeColor=none;fillColor=none;align=left;verticalAlign=top;spacingLeft=4;spacingRight=4;overflow=hidden;rotatable=0;points=[[0,0.5],[1,0.5]];portConstraint=eastwest;" vertex="1" parent="7">
                    <mxGeometry y="138" width="140" height="26" as="geometry"/>
                </mxCell>
                <mxCell id="12" value="Cliente" style="swimlane;fontStyle=0;childLayout=stackLayout;horizontal=1;startSize=26;fillColor=none;horizontalStack=0;resizeParent=1;resizeParentMax=0;resizeLast=0;collapsible=1;marginBottom=0;" vertex="1" parent="1">
                    <mxGeometry x="569" y="190" width="150" height="156" as="geometry">
                        <mxRectangle x="100" y="559" width="60" height="26" as="alternateBounds"/>
                    </mxGeometry>
                </mxCell>
                <mxCell id="13" value="+ id: int" style="text;strokeColor=none;fillColor=none;align=left;verticalAlign=top;spacingLeft=4;spacingRight=4;overflow=hidden;rotatable=0;points=[[0,0.5],[1,0.5]];portConstraint=eastwest;" vertex="1" parent="12">
                    <mxGeometry y="26" width="150" height="26" as="geometry"/>
                </mxCell>
                <mxCell id="14" value="+ nome: string" style="text;strokeColor=none;fillColor=none;align=left;verticalAlign=top;spacingLeft=4;spacingRight=4;overflow=hidden;rotatable=0;points=[[0,0.5],[1,0.5]];portConstraint=eastwest;" vertex="1" parent="12">
                    <mxGeometry y="52" width="150" height="26" as="geometry"/>
                </mxCell>
                <mxCell id="15" value="+ telefone: string" style="text;strokeColor=none;fillColor=none;align=left;verticalAlign=top;spacingLeft=4;spacingRight=4;overflow=hidden;rotatable=0;points=[[0,0.5],[1,0.5]];portConstraint=eastwest;" vertex="1" parent="12">
                    <mxGeometry y="78" width="150" height="26" as="geometry"/>
                </mxCell>
                <mxCell id="16" value="+ cpf: string" style="text;strokeColor=none;fillColor=none;align=left;verticalAlign=top;spacingLeft=4;spacingRight=4;overflow=hidden;rotatable=0;points=[[0,0.5],[1,0.5]];portConstraint=eastwest;" vertex="1" parent="12">
                    <mxGeometry y="104" width="150" height="26" as="geometry"/>
                </mxCell>
                <mxCell id="35" value="+ cobrancas: Cobranca[  ]" style="text;strokeColor=none;fillColor=none;align=left;verticalAlign=top;spacingLeft=4;spacingRight=4;overflow=hidden;rotatable=0;points=[[0,0.5],[1,0.5]];portConstraint=eastwest;" vertex="1" parent="12">
                    <mxGeometry y="130" width="150" height="26" as="geometry"/>
                </mxCell>
                <mxCell id="32" value="&lt;pre&gt;&lt;div style=&quot;line-height: 24px&quot;&gt;&lt;div&gt;&lt;font face=&quot;Helvetica&quot;&gt;2.&amp;nbsp;Desenvolva&amp;nbsp;o&amp;nbsp;Diagrama&amp;nbsp;de&amp;nbsp;Classes&amp;nbsp;para&amp;nbsp;um&amp;nbsp;sistema&amp;nbsp;de&amp;nbsp;cobrança,&amp;nbsp;de&amp;nbsp;acordo&amp;nbsp;com&amp;nbsp;as&amp;nbsp;especificações:&lt;/font&gt;&lt;/div&gt;&lt;div&gt;&lt;font face=&quot;Helvetica&quot;&gt;&amp;nbsp;&amp;nbsp;&amp;nbsp;-&amp;nbsp;Cada&amp;nbsp;cobrança&amp;nbsp;deve&amp;nbsp;estar&amp;nbsp;vinculada&amp;nbsp;a&amp;nbsp;um&amp;nbsp;cliente,&amp;nbsp;e&amp;nbsp;cada&amp;nbsp;cliente&amp;nbsp;pode&amp;nbsp;ter&amp;nbsp;várias&amp;nbsp;cobranças.&lt;/font&gt;&lt;/div&gt;&lt;div&gt;&lt;font face=&quot;Helvetica&quot;&gt;&amp;nbsp;&amp;nbsp;&amp;nbsp;-&amp;nbsp;Para&amp;nbsp;cobrança&amp;nbsp;gerada&amp;nbsp;há&amp;nbsp;um&amp;nbsp;boleto&amp;nbsp;e&amp;nbsp;este&amp;nbsp;boleto&amp;nbsp;está&amp;nbsp;vinculado&amp;nbsp;a&amp;nbsp;uma&amp;nbsp;única&amp;nbsp;cobrança.&amp;nbsp;&lt;/font&gt;&lt;/div&gt;&lt;div&gt;&lt;font face=&quot;Helvetica&quot;&gt;Um&amp;nbsp;boleto&amp;nbsp;só&amp;nbsp;pode&amp;nbsp;ser&amp;nbsp;criado&amp;nbsp;se&amp;nbsp;houver&amp;nbsp;uma&amp;nbsp;cobrança&amp;nbsp;e&amp;nbsp;se&amp;nbsp;ela&amp;nbsp;for&amp;nbsp;excluída&amp;nbsp;o&amp;nbsp;boleto&amp;nbsp;também&amp;nbsp;deve&amp;nbsp;ser&amp;nbsp;excluído.&lt;/font&gt;&lt;/div&gt;&lt;br&gt;&lt;/div&gt;&lt;/pre&gt;" style="text;whiteSpace=wrap;html=1;" vertex="1" parent="1">
                    <mxGeometry x="113" y="40" width="601" height="120" as="geometry"/>
                </mxCell>
            </root>
        </mxGraphModel>
    </diagram>
</mxfile>